<mxfile host="app.diagrams.net" modified="2023-04-23T17:38:07.793Z" agent="Mozilla/5.0 (Macintosh; Intel Mac OS X 10_15_7) AppleWebKit/537.36 (KHTML, like Gecko) Chrome/112.0.0.0 Safari/537.36" version="21.2.0" etag="8R7eNCqyYtw3raVUO-TK" type="github">
  <diagram name="Page-1" id="OOlPxlB5Ag2BuIWwY0A2">
    <mxGraphModel>
      <root>
        <mxCell id="0" />
        <mxCell id="1" parent="0" />
      </root>
    </mxGraphModel>
  </diagram>
</mxfile>
